<svg width="421" height="421" viewBox="0 0 421 421" fill="none" xmlns="http://www.w3.org/2000/svg">
<path d="M210.5 315.75C210.5 257.623 257.622 210.5 315.75 210.5C373.877 210.5 421 257.623 421 315.75C421 373.878 373.877 420.999 315.75 420.999C257.622 420.999 210.5 373.878 210.5 315.75Z" fill="white"/>
<path d="M210.5 0V210.499H315.75C373.878 210.499 421 163.378 421 105.25C421 47.1221 373.878 0 315.75 0H210.5Z" fill="#03DAC6"/>
<path d="M0 105.25C0 163.378 47.122 210.499 105.25 210.499H210.5V0H105.25C47.122 0 0 47.122 0 105.25Z" fill="#6200EE"/>
<path d="M0 287C0 244.75 34.2502 210.5 76.5 210.5H210.5V344.5C210.5 386.75 176.25 421 134 421H76.5C34.2502 421 0 386.75 0 344.5V287Z" fill="#020202"/>
</svg>
