<svg width="517" height="186" viewBox="0 0 517 186" fill="none" xmlns="http://www.w3.org/2000/svg">
<path d="M2.625 72V3.75H22.7812C30.0938 3.75 35.6406 5.26562 39.4219 8.29688C43.2031 11.2969 45.0938 15.7344 45.0938 21.6094C45.0938 25.1406 44.125 28.2188 42.1875 30.8438C40.2812 33.4375 37.6562 35.2969 34.3125 36.4219C38.2812 37.2969 41.4688 39.25 43.875 42.2812C46.3125 45.3125 47.5312 48.8125 47.5312 52.7812C47.5312 58.8125 45.5781 63.5312 41.6719 66.9375C37.7969 70.3125 32.3906 72 25.4531 72H2.625ZM8.39062 39.1875V67.125H25.6875C30.625 67.125 34.5312 65.875 37.4062 63.375C40.3125 60.8438 41.7656 57.3438 41.7656 52.875C41.7656 48.6562 40.375 45.3281 37.5938 42.8906C34.8438 40.4219 31.0312 39.1875 26.1562 39.1875H8.39062ZM8.39062 34.3594H24.1406C28.9531 34.2656 32.6719 33.1406 35.2969 30.9844C37.9531 28.7969 39.2812 25.625 39.2812 21.4688C39.2812 17.0938 37.9062 13.875 35.1562 11.8125C32.4375 9.71875 28.3125 8.67188 22.7812 8.67188H8.39062V34.3594ZM65.9688 72H60.3438V21.2812H65.9688V72ZM59.3594 6.60938C59.3594 5.54687 59.7031 4.65625 60.3906 3.9375C61.0781 3.1875 62.0156 2.8125 63.2031 2.8125C64.3906 2.8125 65.3281 3.1875 66.0156 3.9375C66.7344 4.65625 67.0938 5.54687 67.0938 6.60938C67.0938 7.67188 66.7344 8.5625 66.0156 9.28125C65.3281 10 64.3906 10.3594 63.2031 10.3594C62.0156 10.3594 61.0781 10 60.3906 9.28125C59.7031 8.5625 59.3594 7.67188 59.3594 6.60938ZM100.391 72.9375C96.0781 72.9375 92.1719 71.875 88.6719 69.75C85.2031 67.625 82.5 64.6719 80.5625 60.8906C78.625 57.0781 77.6562 52.8125 77.6562 48.0938V46.0781C77.6562 41.2031 78.5938 36.8125 80.4688 32.9062C82.375 29 85.0156 25.9375 88.3906 23.7188C91.7656 21.4688 95.4219 20.3438 99.3594 20.3438C105.516 20.3438 110.391 22.4531 113.984 26.6719C117.609 30.8594 119.422 36.5938 119.422 43.875V47.0156H83.2344V48.0938C83.2344 53.8438 84.875 58.6406 88.1562 62.4844C91.4688 66.2969 95.625 68.2031 100.625 68.2031C103.625 68.2031 106.266 67.6562 108.547 66.5625C110.859 65.4688 112.953 63.7188 114.828 61.3125L118.344 63.9844C114.219 69.9531 108.234 72.9375 100.391 72.9375ZM99.3594 25.125C95.1406 25.125 91.5781 26.6719 88.6719 29.7656C85.7969 32.8594 84.0469 37.0156 83.4219 42.2344H113.844V41.625C113.688 36.75 112.297 32.7812 109.672 29.7188C107.047 26.6562 103.609 25.125 99.3594 25.125ZM135.188 21.2812L135.375 29.9531C137.281 26.8281 139.656 24.4531 142.5 22.8281C145.344 21.1719 148.484 20.3438 151.922 20.3438C157.359 20.3438 161.406 21.875 164.062 24.9375C166.719 28 168.062 32.5938 168.094 38.7188V72H162.516V38.6719C162.484 34.1406 161.516 30.7656 159.609 28.5469C157.734 26.3281 154.719 25.2188 150.562 25.2188C147.094 25.2188 144.016 26.3125 141.328 28.5C138.672 30.6562 136.703 33.5781 135.422 37.2656V72H129.844V21.2812H135.188ZM197.922 64.2656L213.344 21.2812H219.109L200.172 72H195.625L176.594 21.2812H182.359L197.922 64.2656ZM246.828 72.9375C242.516 72.9375 238.609 71.875 235.109 69.75C231.641 67.625 228.938 64.6719 227 60.8906C225.062 57.0781 224.094 52.8125 224.094 48.0938V46.0781C224.094 41.2031 225.031 36.8125 226.906 32.9062C228.812 29 231.453 25.9375 234.828 23.7188C238.203 21.4688 241.859 20.3438 245.797 20.3438C251.953 20.3438 256.828 22.4531 260.422 26.6719C264.047 30.8594 265.859 36.5938 265.859 43.875V47.0156H229.672V48.0938C229.672 53.8438 231.312 58.6406 234.594 62.4844C237.906 66.2969 242.062 68.2031 247.062 68.2031C250.062 68.2031 252.703 67.6562 254.984 66.5625C257.297 65.4688 259.391 63.7188 261.266 61.3125L264.781 63.9844C260.656 69.9531 254.672 72.9375 246.828 72.9375ZM245.797 25.125C241.578 25.125 238.016 26.6719 235.109 29.7656C232.234 32.8594 230.484 37.0156 229.859 42.2344H260.281V41.625C260.125 36.75 258.734 32.7812 256.109 29.7188C253.484 26.6562 250.047 25.125 245.797 25.125ZM281.625 21.2812L281.812 29.9531C283.719 26.8281 286.094 24.4531 288.938 22.8281C291.781 21.1719 294.922 20.3438 298.359 20.3438C303.797 20.3438 307.844 21.875 310.5 24.9375C313.156 28 314.5 32.5938 314.531 38.7188V72H308.953V38.6719C308.922 34.1406 307.953 30.7656 306.047 28.5469C304.172 26.3281 301.156 25.2188 297 25.2188C293.531 25.2188 290.453 26.3125 287.766 28.5C285.109 30.6562 283.141 33.5781 281.859 37.2656V72H276.281V21.2812H281.625ZM334.844 72H329.219V21.2812H334.844V72ZM328.234 6.60938C328.234 5.54687 328.578 4.65625 329.266 3.9375C329.953 3.1875 330.891 2.8125 332.078 2.8125C333.266 2.8125 334.203 3.1875 334.891 3.9375C335.609 4.65625 335.969 5.54687 335.969 6.60938C335.969 7.67188 335.609 8.5625 334.891 9.28125C334.203 10 333.266 10.3594 332.078 10.3594C330.891 10.3594 329.953 10 329.266 9.28125C328.578 8.5625 328.234 7.67188 328.234 6.60938ZM347.375 46.1719C347.375 38.2969 349.125 32.0312 352.625 27.375C356.156 22.6875 360.938 20.3438 366.969 20.3438C373.812 20.3438 379.031 23.0469 382.625 28.4531V0H388.203V72H382.953L382.719 65.25C379.125 70.375 373.844 72.9375 366.875 72.9375C361.031 72.9375 356.312 70.5938 352.719 65.9062C349.156 61.1875 347.375 54.8281 347.375 46.8281V46.1719ZM353.047 47.1562C353.047 53.625 354.344 58.7344 356.938 62.4844C359.531 66.2031 363.188 68.0625 367.906 68.0625C374.812 68.0625 379.719 65.0156 382.625 58.9219V35.1094C379.719 28.5156 374.844 25.2188 368 25.2188C363.281 25.2188 359.609 27.0781 356.984 30.7969C354.359 34.4844 353.047 39.9375 353.047 47.1562ZM399.375 45.8906C399.375 41.0156 400.312 36.625 402.188 32.7188C404.094 28.8125 406.766 25.7812 410.203 23.625C413.672 21.4375 417.594 20.3438 421.969 20.3438C428.719 20.3438 434.188 22.7188 438.375 27.4688C442.562 32.1875 444.656 38.4531 444.656 46.2656V47.4375C444.656 52.3438 443.703 56.7656 441.797 60.7031C439.922 64.6094 437.266 67.625 433.828 69.75C430.391 71.875 426.469 72.9375 422.062 72.9375C415.344 72.9375 409.875 70.5781 405.656 65.8594C401.469 61.1094 399.375 54.8281 399.375 47.0156V45.8906ZM405 47.4375C405 53.5 406.562 58.4844 409.688 62.3906C412.844 66.2656 416.969 68.2031 422.062 68.2031C427.125 68.2031 431.219 66.2656 434.344 62.3906C437.5 58.4844 439.078 53.3438 439.078 46.9688V45.8906C439.078 42.0156 438.359 38.4688 436.922 35.25C435.484 32.0312 433.469 29.5469 430.875 27.7969C428.281 26.0156 425.312 25.125 421.969 25.125C416.969 25.125 412.891 27.0938 409.734 31.0312C406.578 34.9375 405 40.0625 405 46.4062V47.4375ZM510.641 72C510.078 70.4062 509.719 68.0469 509.562 64.9219C507.594 67.4844 505.078 69.4688 502.016 70.875C498.984 72.25 495.766 72.9375 492.359 72.9375C487.484 72.9375 483.531 71.5781 480.5 68.8594C477.5 66.1406 476 62.7031 476 58.5469C476 53.6094 478.047 49.7031 482.141 46.8281C486.266 43.9531 492 42.5156 499.344 42.5156H509.516V36.75C509.516 33.125 508.391 30.2812 506.141 28.2188C503.922 26.125 500.672 25.0781 496.391 25.0781C492.484 25.0781 489.25 26.0781 486.688 28.0781C484.125 30.0781 482.844 32.4844 482.844 35.2969L477.219 35.25C477.219 31.2188 479.094 27.7344 482.844 24.7969C486.594 21.8281 491.203 20.3438 496.672 20.3438C502.328 20.3438 506.781 21.7656 510.031 24.6094C513.312 27.4219 515 31.3594 515.094 36.4219V60.4219C515.094 65.3281 515.609 69 516.641 71.4375V72H510.641ZM493.016 67.9688C496.766 67.9688 500.109 67.0625 503.047 65.25C506.016 63.4375 508.172 61.0156 509.516 57.9844V46.8281H499.484C493.891 46.8906 489.516 47.9219 486.359 49.9219C483.203 51.8906 481.625 54.6094 481.625 58.0781C481.625 60.9219 482.672 63.2812 484.766 65.1562C486.891 67.0312 489.641 67.9688 493.016 67.9688ZM18.4688 116.75L36 166.25L53.4375 116.75H71.9062V185H57.7969V166.344L59.2031 134.141L40.7812 185H31.125L12.75 134.188L14.1562 166.344V185H0.09375V116.75H18.4688ZM112.188 185C111.562 183.781 111.109 182.266 110.828 180.453C107.547 184.109 103.281 185.938 98.0312 185.938C93.0625 185.938 88.9375 184.5 85.6562 181.625C82.4062 178.75 80.7812 175.125 80.7812 170.75C80.7812 165.375 82.7656 161.25 86.7344 158.375C90.7344 155.5 96.5 154.047 104.031 154.016H110.266V151.109C110.266 148.766 109.656 146.891 108.438 145.484C107.25 144.078 105.359 143.375 102.766 143.375C100.484 143.375 98.6875 143.922 97.375 145.016C96.0938 146.109 95.4531 147.609 95.4531 149.516H81.9062C81.9062 146.578 82.8125 143.859 84.625 141.359C86.4375 138.859 89 136.906 92.3125 135.5C95.625 134.062 99.3438 133.344 103.469 133.344C109.719 133.344 114.672 134.922 118.328 138.078C122.016 141.203 123.859 145.609 123.859 151.297V173.281C123.891 178.094 124.562 181.734 125.875 184.203V185H112.188ZM100.984 175.578C102.984 175.578 104.828 175.141 106.516 174.266C108.203 173.359 109.453 172.156 110.266 170.656V161.938H105.203C98.4219 161.938 94.8125 164.281 94.375 168.969L94.3281 169.766C94.3281 171.453 94.9219 172.844 96.1094 173.938C97.2969 175.031 98.9219 175.578 100.984 175.578ZM152.188 164.656L147.312 169.531V185H133.766V113H147.312V152.891L149.938 149.516L162.922 134.281H179.188L160.859 155.422L180.781 185H165.219L152.188 164.656ZM206.953 185.938C199.516 185.938 193.453 183.656 188.766 179.094C184.109 174.531 181.781 168.453 181.781 160.859V159.547C181.781 154.453 182.766 149.906 184.734 145.906C186.703 141.875 189.484 138.781 193.078 136.625C196.703 134.438 200.828 133.344 205.453 133.344C212.391 133.344 217.844 135.531 221.812 139.906C225.812 144.281 227.812 150.484 227.812 158.516V164.047H195.516C195.953 167.359 197.266 170.016 199.453 172.016C201.672 174.016 204.469 175.016 207.844 175.016C213.062 175.016 217.141 173.125 220.078 169.344L226.734 176.797C224.703 179.672 221.953 181.922 218.484 183.547C215.016 185.141 211.172 185.938 206.953 185.938ZM205.406 144.312C202.719 144.312 200.531 145.219 198.844 147.031C197.188 148.844 196.125 151.438 195.656 154.812H214.5V153.734C214.438 150.734 213.625 148.422 212.062 146.797C210.5 145.141 208.281 144.312 205.406 144.312ZM243.953 185H230.641L239.453 134.281H252.766L243.953 185ZM241 121.391C240.938 119.297 241.625 117.562 243.062 116.188C244.5 114.812 246.234 114.125 248.266 114.125C250.266 114.062 252 114.672 253.469 115.953C254.938 117.234 255.703 118.891 255.766 120.922C255.828 122.859 255.172 124.547 253.797 125.984C252.453 127.422 250.688 128.172 248.5 128.234C246.531 128.297 244.797 127.703 243.297 126.453C241.828 125.203 241.062 123.516 241 121.391ZM281.516 121.812L279.312 134.281H287.75L286.016 144.219H277.578L273.266 169.625C273.078 171.219 273.203 172.438 273.641 173.281C274.078 174.125 275.141 174.578 276.828 174.641C277.328 174.672 278.672 174.594 280.859 174.406L279.922 184.766C277.578 185.547 275.047 185.906 272.328 185.844C267.984 185.781 264.75 184.422 262.625 181.766C260.5 179.109 259.625 175.516 260 170.984L264.359 144.219H257.188L258.922 134.281H266.094L268.25 121.812H281.516Z" fill="black"/>
</svg>
