<svg width="193" height="39" viewBox="0 0 193 39" fill="none" xmlns="http://www.w3.org/2000/svg">
<path d="M62.6914 2.29688L72.125 27.3633L81.5361 2.29688H88.8809V35H83.2207V24.2188L83.7822 9.79883L74.124 35H70.0586L60.4229 9.82129L60.9844 24.2188V35H55.3242V2.29688H62.6914ZM109.762 35C109.523 34.5358 109.313 33.7796 109.133 32.7314C107.396 34.5433 105.27 35.4492 102.754 35.4492C100.314 35.4492 98.3222 34.7529 96.7799 33.3604C95.2376 31.9678 94.4664 30.2458 94.4664 28.1943C94.4664 25.6038 95.4247 23.6198 97.3414 22.2422C99.273 20.8496 102.028 20.1533 105.607 20.1533H108.954V18.5586C108.954 17.3008 108.602 16.2975 107.898 15.5488C107.194 14.7852 106.124 14.4033 104.686 14.4033C103.443 14.4033 102.425 14.7178 101.631 15.3467C100.838 15.9606 100.441 16.7467 100.441 17.7051H94.983C94.983 16.3724 95.4247 15.1296 96.3082 13.9766C97.1917 12.8086 98.3896 11.8952 99.902 11.2363C101.429 10.5775 103.129 10.248 105.001 10.248C107.846 10.248 110.114 10.9668 111.806 12.4043C113.498 13.8268 114.367 15.8333 114.412 18.4238V29.3848C114.412 31.571 114.719 33.3154 115.333 34.6182V35H109.762ZM103.765 31.0693C104.843 31.0693 105.854 30.8073 106.797 30.2832C107.756 29.7591 108.475 29.0553 108.954 28.1719V23.5898H106.011C103.99 23.5898 102.47 23.9417 101.452 24.6455C100.434 25.3493 99.9244 26.3451 99.9244 27.6328C99.9244 28.681 100.269 29.5195 100.958 30.1484C101.661 30.7624 102.597 31.0693 103.765 31.0693ZM128.173 24.5781L125.747 27.0713V35H120.289V0.5H125.747V20.4004L127.454 18.2666L134.17 10.6973H140.729L131.699 20.8271L141.695 35H135.383L128.173 24.5781ZM154.715 35.4492C151.256 35.4492 148.448 34.3636 146.292 32.1924C144.151 30.0062 143.08 27.1012 143.08 23.4775V22.8037C143.08 20.3779 143.544 18.2142 144.472 16.3125C145.416 14.3958 146.734 12.9059 148.426 11.8428C150.118 10.7796 152.004 10.248 154.086 10.248C157.395 10.248 159.948 11.3037 161.745 13.415C163.557 15.5264 164.463 18.5137 164.463 22.377V24.5781H148.583C148.748 26.5846 149.414 28.1719 150.582 29.3398C151.765 30.5078 153.247 31.0918 155.029 31.0918C157.53 31.0918 159.566 30.0811 161.138 28.0596L164.081 30.8672C163.108 32.3197 161.805 33.4502 160.173 34.2588C158.555 35.0524 156.736 35.4492 154.715 35.4492ZM154.063 14.6279C152.566 14.6279 151.353 15.152 150.425 16.2002C149.511 17.2484 148.927 18.7083 148.673 20.5801H159.072V20.1758C158.952 18.349 158.466 16.9714 157.612 16.043C156.759 15.0996 155.576 14.6279 154.063 14.6279ZM171.171 35H167.128L171.351 10.6973H175.394L171.171 35ZM174.518 1.8252C175.207 1.79525 175.776 2.00488 176.225 2.4541C176.689 2.88835 176.921 3.46484 176.921 4.18359C176.906 4.88737 176.674 5.46387 176.225 5.91309C175.791 6.3623 175.222 6.60189 174.518 6.63184C173.814 6.66178 173.238 6.45964 172.788 6.02539C172.339 5.59115 172.122 5.02214 172.137 4.31836C172.152 3.61458 172.377 3.0306 172.811 2.56641C173.245 2.10221 173.814 1.85514 174.518 1.8252ZM188.706 4.8125L187.673 10.6973H192.098L191.536 13.9092H187.134L184.596 29.0254C184.551 29.4147 184.543 29.7741 184.573 30.1035C184.678 31.2715 185.314 31.8555 186.482 31.8555C186.977 31.8555 187.635 31.7806 188.459 31.6309L188.145 35.0225C187.171 35.292 186.183 35.4268 185.18 35.4268C183.562 35.3968 182.35 34.8053 181.541 33.6523C180.732 32.4844 180.418 30.9196 180.598 28.958L183.068 13.9092H178.778L179.34 10.6973H183.63L184.663 4.8125H188.706Z" fill="white"/>
<path d="M2 29.5C2 24.2533 6.2533 20 11.5 20H21V29.5C21 34.7467 16.7467 39 11.5 39V39C6.2533 39 2 34.7467 2 29.5V29.5Z" fill="#020202"/>
<path d="M21 29.5C21 24.2534 25.2533 20 30.5 20C35.7466 20 40 24.2534 40 29.5C40 34.7467 35.7466 39 30.5 39C25.2533 39 21 34.7467 21 29.5Z" fill="white"/>
<path d="M21 1V19.9999H30.5C35.7467 19.9999 40 15.7467 40 10.5C40 5.2533 35.7467 1 30.5 1H21Z" fill="black"/>
<path d="M2 10.5C2 15.7467 6.25329 19.9999 11.5 19.9999H21V1H11.5C6.25329 1 2 5.25329 2 10.5Z" fill="white"/>
</svg>
